<svg id="visual" viewBox="0 0 1000 200" width="1000" height="200" xmlns="http://www.w3.org/2000/svg" xmlns:xlink="http://www.w3.org/1999/xlink" version="1.1"><rect x="0" y="0" width="1000" height="200" fill="#232323"></rect><path d="M0 25L12.8 23.7C25.7 22.3 51.3 19.7 77 18.8C102.7 18 128.3 19 154 18.8C179.7 18.7 205.3 17.3 231 17.2C256.7 17 282.3 18 308 17.2C333.7 16.3 359.3 13.7 385 15.7C410.7 17.7 436.3 24.3 461.8 26.7C487.3 29 512.7 27 538.2 25.3C563.7 23.7 589.3 22.3 615 22.2C640.7 22 666.3 23 692 23.5C717.7 24 743.3 24 769 22.5C794.7 21 820.3 18 846 19C871.7 20 897.3 25 923 24.8C948.7 24.7 974.3 19.3 987.2 16.7L1000 14L1000 201L987.2 201C974.3 201 948.7 201 923 201C897.3 201 871.7 201 846 201C820.3 201 794.7 201 769 201C743.3 201 717.7 201 692 201C666.3 201 640.7 201 615 201C589.3 201 563.7 201 538.2 201C512.7 201 487.3 201 461.8 201C436.3 201 410.7 201 385 201C359.3 201 333.7 201 308 201C282.3 201 256.7 201 231 201C205.3 201 179.7 201 154 201C128.3 201 102.7 201 77 201C51.3 201 25.7 201 12.8 201L0 201Z" fill="#232323"></path><path d="M0 40L12.8 38.8C25.7 37.7 51.3 35.3 77 37C102.7 38.7 128.3 44.3 154 47.8C179.7 51.3 205.3 52.7 231 51C256.7 49.3 282.3 44.7 308 42.3C333.7 40 359.3 40 385 40.3C410.7 40.7 436.3 41.3 461.8 43C487.3 44.7 512.7 47.3 538.2 46.7C563.7 46 589.3 42 615 39.7C640.7 37.3 666.3 36.7 692 36.7C717.7 36.7 743.3 37.3 769 39C794.7 40.7 820.3 43.3 846 44.3C871.7 45.3 897.3 44.7 923 43.7C948.7 42.7 974.3 41.3 987.2 40.7L1000 40L1000 201L987.2 201C974.3 201 948.7 201 923 201C897.3 201 871.7 201 846 201C820.3 201 794.7 201 769 201C743.3 201 717.7 201 692 201C666.3 201 640.7 201 615 201C589.3 201 563.7 201 538.2 201C512.7 201 487.3 201 461.8 201C436.3 201 410.7 201 385 201C359.3 201 333.7 201 308 201C282.3 201 256.7 201 231 201C205.3 201 179.7 201 154 201C128.3 201 102.7 201 77 201C51.3 201 25.7 201 12.8 201L0 201Z" fill="#3e3e3e"></path><path d="M0 74L12.8 73.2C25.7 72.3 51.3 70.7 77 69.3C102.7 68 128.3 67 154 65.5C179.7 64 205.3 62 231 60.7C256.7 59.3 282.3 58.7 308 60.8C333.7 63 359.3 68 385 68.8C410.7 69.7 436.3 66.3 461.8 64.2C487.3 62 512.7 61 538.2 61.7C563.7 62.3 589.3 64.7 615 66C640.7 67.3 666.3 67.7 692 68.8C717.7 70 743.3 72 769 71.5C794.7 71 820.3 68 846 65.8C871.7 63.7 897.3 62.3 923 62C948.7 61.7 974.3 62.3 987.2 62.7L1000 63L1000 201L987.2 201C974.3 201 948.7 201 923 201C897.3 201 871.7 201 846 201C820.3 201 794.7 201 769 201C743.3 201 717.7 201 692 201C666.3 201 640.7 201 615 201C589.3 201 563.7 201 538.2 201C512.7 201 487.3 201 461.8 201C436.3 201 410.7 201 385 201C359.3 201 333.7 201 308 201C282.3 201 256.7 201 231 201C205.3 201 179.7 201 154 201C128.3 201 102.7 201 77 201C51.3 201 25.7 201 12.8 201L0 201Z" fill="#5a5a5a"></path><path d="M0 81L12.8 82.2C25.7 83.3 51.3 85.7 77 88.2C102.7 90.7 128.3 93.3 154 92.3C179.7 91.3 205.3 86.7 231 86.5C256.7 86.3 282.3 90.7 308 92.5C333.7 94.3 359.3 93.7 385 94C410.7 94.3 436.3 95.7 461.8 94.8C487.3 94 512.7 91 538.2 89C563.7 87 589.3 86 615 87.2C640.7 88.3 666.3 91.7 692 91.7C717.7 91.7 743.3 88.3 769 87.7C794.7 87 820.3 89 846 89.5C871.7 90 897.3 89 923 87.2C948.7 85.3 974.3 82.7 987.2 81.3L1000 80L1000 201L987.2 201C974.3 201 948.7 201 923 201C897.3 201 871.7 201 846 201C820.3 201 794.7 201 769 201C743.3 201 717.7 201 692 201C666.3 201 640.7 201 615 201C589.3 201 563.7 201 538.2 201C512.7 201 487.3 201 461.8 201C436.3 201 410.7 201 385 201C359.3 201 333.7 201 308 201C282.3 201 256.7 201 231 201C205.3 201 179.7 201 154 201C128.3 201 102.7 201 77 201C51.3 201 25.7 201 12.8 201L0 201Z" fill="#787878"></path><path d="M0 106L12.8 105.5C25.7 105 51.3 104 77 105.2C102.7 106.3 128.3 109.7 154 111.5C179.7 113.3 205.3 113.7 231 113.2C256.7 112.7 282.3 111.3 308 109.2C333.7 107 359.3 104 385 104C410.7 104 436.3 107 461.8 106.8C487.3 106.7 512.7 103.3 538.2 103.2C563.7 103 589.3 106 615 108.7C640.7 111.3 666.3 113.7 692 113.5C717.7 113.3 743.3 110.7 769 110C794.7 109.3 820.3 110.7 846 111.7C871.7 112.7 897.3 113.3 923 111.3C948.7 109.3 974.3 104.7 987.2 102.3L1000 100L1000 201L987.2 201C974.3 201 948.7 201 923 201C897.3 201 871.7 201 846 201C820.3 201 794.7 201 769 201C743.3 201 717.7 201 692 201C666.3 201 640.7 201 615 201C589.3 201 563.7 201 538.2 201C512.7 201 487.3 201 461.8 201C436.3 201 410.7 201 385 201C359.3 201 333.7 201 308 201C282.3 201 256.7 201 231 201C205.3 201 179.7 201 154 201C128.3 201 102.7 201 77 201C51.3 201 25.7 201 12.8 201L0 201Z" fill="#989898"></path><path d="M0 143L12.8 142.7C25.7 142.3 51.3 141.7 77 138.2C102.7 134.7 128.3 128.3 154 126C179.7 123.7 205.3 125.3 231 127.2C256.7 129 282.3 131 308 133C333.7 135 359.3 137 385 138.3C410.7 139.7 436.3 140.3 461.8 140.2C487.3 140 512.7 139 538.2 139C563.7 139 589.3 140 615 138C640.7 136 666.3 131 692 128.5C717.7 126 743.3 126 769 127.5C794.7 129 820.3 132 846 133.5C871.7 135 897.3 135 923 134.8C948.7 134.7 974.3 134.3 987.2 134.2L1000 134L1000 201L987.2 201C974.3 201 948.7 201 923 201C897.3 201 871.7 201 846 201C820.3 201 794.7 201 769 201C743.3 201 717.7 201 692 201C666.3 201 640.7 201 615 201C589.3 201 563.7 201 538.2 201C512.7 201 487.3 201 461.8 201C436.3 201 410.7 201 385 201C359.3 201 333.7 201 308 201C282.3 201 256.7 201 231 201C205.3 201 179.7 201 154 201C128.3 201 102.7 201 77 201C51.3 201 25.7 201 12.8 201L0 201Z" fill="#b9b9b9"></path><path d="M0 154L12.8 152.5C25.7 151 51.3 148 77 146.8C102.7 145.7 128.3 146.3 154 149.5C179.7 152.7 205.3 158.3 231 160.3C256.7 162.3 282.3 160.7 308 158.8C333.7 157 359.3 155 385 152.5C410.7 150 436.3 147 461.8 147.8C487.3 148.7 512.7 153.3 538.2 155.7C563.7 158 589.3 158 615 157.2C640.7 156.3 666.3 154.7 692 155.5C717.7 156.3 743.3 159.7 769 158.3C794.7 157 820.3 151 846 148.7C871.7 146.3 897.3 147.7 923 149.3C948.7 151 974.3 153 987.2 154L1000 155L1000 201L987.2 201C974.3 201 948.7 201 923 201C897.3 201 871.7 201 846 201C820.3 201 794.7 201 769 201C743.3 201 717.7 201 692 201C666.3 201 640.7 201 615 201C589.3 201 563.7 201 538.2 201C512.7 201 487.3 201 461.8 201C436.3 201 410.7 201 385 201C359.3 201 333.7 201 308 201C282.3 201 256.7 201 231 201C205.3 201 179.7 201 154 201C128.3 201 102.7 201 77 201C51.3 201 25.7 201 12.8 201L0 201Z" fill="#dcdcdc"></path><path d="M0 185L12.8 182C25.7 179 51.3 173 77 171.2C102.7 169.3 128.3 171.7 154 174.5C179.7 177.3 205.3 180.7 231 179.3C256.7 178 282.3 172 308 171.8C333.7 171.7 359.3 177.3 385 179.3C410.7 181.3 436.3 179.7 461.8 178.3C487.3 177 512.7 176 538.2 175.5C563.7 175 589.3 175 615 176.5C640.7 178 666.3 181 692 180.2C717.7 179.3 743.3 174.7 769 173.7C794.7 172.7 820.3 175.3 846 174.7C871.7 174 897.3 170 923 168.8C948.7 167.7 974.3 169.3 987.2 170.2L1000 171L1000 201L987.2 201C974.3 201 948.7 201 923 201C897.3 201 871.7 201 846 201C820.3 201 794.7 201 769 201C743.3 201 717.7 201 692 201C666.3 201 640.7 201 615 201C589.3 201 563.7 201 538.2 201C512.7 201 487.3 201 461.8 201C436.3 201 410.7 201 385 201C359.3 201 333.7 201 308 201C282.3 201 256.7 201 231 201C205.3 201 179.7 201 154 201C128.3 201 102.7 201 77 201C51.3 201 25.7 201 12.8 201L0 201Z" fill="#ffffff"></path></svg>