<svg id="visual" viewBox="0 0 1000 200" width="1000" height="200" xmlns="http://www.w3.org/2000/svg" xmlns:xlink="http://www.w3.org/1999/xlink" version="1.1"><rect x="0" y="0" width="1000" height="200" fill="#fff"></rect><path d="M0 187L12.8 186.5C25.7 186 51.3 185 77 184.8C102.7 184.7 128.3 185.3 154 183.5C179.7 181.7 205.3 177.3 231 174.8C256.7 172.3 282.3 171.7 308 172.5C333.7 173.3 359.3 175.7 385 177C410.7 178.3 436.3 178.7 461.8 179.8C487.3 181 512.7 183 538.2 183.8C563.7 184.7 589.3 184.3 615 184.5C640.7 184.7 666.3 185.3 692 184C717.7 182.7 743.3 179.3 769 177.3C794.7 175.3 820.3 174.7 846 175.2C871.7 175.7 897.3 177.3 923 178.5C948.7 179.7 974.3 180.3 987.2 180.7L1000 181L1000 0L987.2 0C974.3 0 948.7 0 923 0C897.3 0 871.7 0 846 0C820.3 0 794.7 0 769 0C743.3 0 717.7 0 692 0C666.3 0 640.7 0 615 0C589.3 0 563.7 0 538.2 0C512.7 0 487.3 0 461.8 0C436.3 0 410.7 0 385 0C359.3 0 333.7 0 308 0C282.3 0 256.7 0 231 0C205.3 0 179.7 0 154 0C128.3 0 102.7 0 77 0C51.3 0 25.7 0 12.8 0L0 0Z" fill="#ffffff"></path><path d="M0 149L12.8 151C25.7 153 51.3 157 77 158C102.7 159 128.3 157 154 154.3C179.7 151.7 205.3 148.3 231 146.7C256.7 145 282.3 145 308 148.3C333.7 151.7 359.3 158.3 385 158.5C410.7 158.7 436.3 152.3 461.8 152.2C487.3 152 512.7 158 538.2 159.3C563.7 160.7 589.3 157.3 615 154.3C640.7 151.3 666.3 148.7 692 147.5C717.7 146.3 743.3 146.7 769 149.8C794.7 153 820.3 159 846 159.5C871.7 160 897.3 155 923 153.8C948.7 152.7 974.3 155.3 987.2 156.7L1000 158L1000 0L987.2 0C974.3 0 948.7 0 923 0C897.3 0 871.7 0 846 0C820.3 0 794.7 0 769 0C743.3 0 717.7 0 692 0C666.3 0 640.7 0 615 0C589.3 0 563.7 0 538.2 0C512.7 0 487.3 0 461.8 0C436.3 0 410.7 0 385 0C359.3 0 333.7 0 308 0C282.3 0 256.7 0 231 0C205.3 0 179.7 0 154 0C128.3 0 102.7 0 77 0C51.3 0 25.7 0 12.8 0L0 0Z" fill="#dddfe7"></path><path d="M0 131L12.8 129.7C25.7 128.3 51.3 125.7 77 126.3C102.7 127 128.3 131 154 133.8C179.7 136.7 205.3 138.3 231 137.5C256.7 136.7 282.3 133.3 308 133.3C333.7 133.3 359.3 136.7 385 138.2C410.7 139.7 436.3 139.3 461.8 136.8C487.3 134.3 512.7 129.7 538.2 126.8C563.7 124 589.3 123 615 124.2C640.7 125.3 666.3 128.7 692 129.3C717.7 130 743.3 128 769 127.8C794.7 127.7 820.3 129.3 846 128.7C871.7 128 897.3 125 923 126.8C948.7 128.7 974.3 135.3 987.2 138.7L1000 142L1000 0L987.2 0C974.3 0 948.7 0 923 0C897.3 0 871.7 0 846 0C820.3 0 794.7 0 769 0C743.3 0 717.7 0 692 0C666.3 0 640.7 0 615 0C589.3 0 563.7 0 538.2 0C512.7 0 487.3 0 461.8 0C436.3 0 410.7 0 385 0C359.3 0 333.7 0 308 0C282.3 0 256.7 0 231 0C205.3 0 179.7 0 154 0C128.3 0 102.7 0 77 0C51.3 0 25.7 0 12.8 0L0 0Z" fill="#bcbfcf"></path><path d="M0 111L12.8 111.2C25.7 111.3 51.3 111.7 77 110.5C102.7 109.3 128.3 106.7 154 106.3C179.7 106 205.3 108 231 109.2C256.7 110.3 282.3 110.7 308 111.5C333.7 112.3 359.3 113.7 385 111.8C410.7 110 436.3 105 461.8 104.8C487.3 104.7 512.7 109.3 538.2 109.7C563.7 110 589.3 106 615 104.5C640.7 103 666.3 104 692 106.7C717.7 109.3 743.3 113.7 769 114.3C794.7 115 820.3 112 846 111.3C871.7 110.7 897.3 112.3 923 111.7C948.7 111 974.3 108 987.2 106.5L1000 105L1000 0L987.2 0C974.3 0 948.7 0 923 0C897.3 0 871.7 0 846 0C820.3 0 794.7 0 769 0C743.3 0 717.7 0 692 0C666.3 0 640.7 0 615 0C589.3 0 563.7 0 538.2 0C512.7 0 487.3 0 461.8 0C436.3 0 410.7 0 385 0C359.3 0 333.7 0 308 0C282.3 0 256.7 0 231 0C205.3 0 179.7 0 154 0C128.3 0 102.7 0 77 0C51.3 0 25.7 0 12.8 0L0 0Z" fill="#9ba1b8"></path><path d="M0 81L12.8 81.5C25.7 82 51.3 83 77 82.7C102.7 82.3 128.3 80.7 154 80C179.7 79.3 205.3 79.7 231 81.7C256.7 83.7 282.3 87.3 308 88.2C333.7 89 359.3 87 385 84.7C410.7 82.3 436.3 79.7 461.8 79.5C487.3 79.3 512.7 81.7 538.2 84C563.7 86.3 589.3 88.7 615 90.5C640.7 92.3 666.3 93.7 692 91.7C717.7 89.7 743.3 84.3 769 82.8C794.7 81.3 820.3 83.7 846 85C871.7 86.3 897.3 86.7 923 88.2C948.7 89.7 974.3 92.3 987.2 93.7L1000 95L1000 0L987.2 0C974.3 0 948.7 0 923 0C897.3 0 871.7 0 846 0C820.3 0 794.7 0 769 0C743.3 0 717.7 0 692 0C666.3 0 640.7 0 615 0C589.3 0 563.7 0 538.2 0C512.7 0 487.3 0 461.8 0C436.3 0 410.7 0 385 0C359.3 0 333.7 0 308 0C282.3 0 256.7 0 231 0C205.3 0 179.7 0 154 0C128.3 0 102.7 0 77 0C51.3 0 25.7 0 12.8 0L0 0Z" fill="#7b83a0"></path><path d="M0 58L12.8 57.5C25.7 57 51.3 56 77 58.7C102.7 61.3 128.3 67.7 154 69C179.7 70.3 205.3 66.7 231 66.7C256.7 66.7 282.3 70.3 308 70C333.7 69.7 359.3 65.3 385 64.2C410.7 63 436.3 65 461.8 67.5C487.3 70 512.7 73 538.2 72.2C563.7 71.3 589.3 66.7 615 64.7C640.7 62.7 666.3 63.3 692 64.5C717.7 65.7 743.3 67.3 769 65.8C794.7 64.3 820.3 59.7 846 57.7C871.7 55.7 897.3 56.3 923 59C948.7 61.7 974.3 66.3 987.2 68.7L1000 71L1000 0L987.2 0C974.3 0 948.7 0 923 0C897.3 0 871.7 0 846 0C820.3 0 794.7 0 769 0C743.3 0 717.7 0 692 0C666.3 0 640.7 0 615 0C589.3 0 563.7 0 538.2 0C512.7 0 487.3 0 461.8 0C436.3 0 410.7 0 385 0C359.3 0 333.7 0 308 0C282.3 0 256.7 0 231 0C205.3 0 179.7 0 154 0C128.3 0 102.7 0 77 0C51.3 0 25.7 0 12.8 0L0 0Z" fill="#5c678a"></path><path d="M0 36L12.8 38.3C25.7 40.7 51.3 45.3 77 47.2C102.7 49 128.3 48 154 46.3C179.7 44.7 205.3 42.3 231 41.3C256.7 40.3 282.3 40.7 308 43.2C333.7 45.7 359.3 50.3 385 51.8C410.7 53.3 436.3 51.7 461.8 49.5C487.3 47.3 512.7 44.7 538.2 43.8C563.7 43 589.3 44 615 42.7C640.7 41.3 666.3 37.7 692 36.5C717.7 35.3 743.3 36.7 769 37C794.7 37.3 820.3 36.7 846 38.3C871.7 40 897.3 44 923 45.7C948.7 47.3 974.3 46.7 987.2 46.3L1000 46L1000 0L987.2 0C974.3 0 948.7 0 923 0C897.3 0 871.7 0 846 0C820.3 0 794.7 0 769 0C743.3 0 717.7 0 692 0C666.3 0 640.7 0 615 0C589.3 0 563.7 0 538.2 0C512.7 0 487.3 0 461.8 0C436.3 0 410.7 0 385 0C359.3 0 333.7 0 308 0C282.3 0 256.7 0 231 0C205.3 0 179.7 0 154 0C128.3 0 102.7 0 77 0C51.3 0 25.7 0 12.8 0L0 0Z" fill="#3d4c74"></path><path d="M0 21L12.8 19.3C25.7 17.7 51.3 14.3 77 14.7C102.7 15 128.3 19 154 21.3C179.7 23.7 205.3 24.3 231 24.5C256.7 24.7 282.3 24.3 308 24.2C333.7 24 359.3 24 385 24.8C410.7 25.7 436.3 27.3 461.8 26.3C487.3 25.3 512.7 21.7 538.2 19.7C563.7 17.7 589.3 17.3 615 18.8C640.7 20.3 666.3 23.7 692 23.3C717.7 23 743.3 19 769 16.8C794.7 14.7 820.3 14.3 846 16.3C871.7 18.3 897.3 22.7 923 22.5C948.7 22.3 974.3 17.7 987.2 15.3L1000 13L1000 0L987.2 0C974.3 0 948.7 0 923 0C897.3 0 871.7 0 846 0C820.3 0 794.7 0 769 0C743.3 0 717.7 0 692 0C666.3 0 640.7 0 615 0C589.3 0 563.7 0 538.2 0C512.7 0 487.3 0 461.8 0C436.3 0 410.7 0 385 0C359.3 0 333.7 0 308 0C282.3 0 256.7 0 231 0C205.3 0 179.7 0 154 0C128.3 0 102.7 0 77 0C51.3 0 25.7 0 12.8 0L0 0Z" fill="#1a335e"></path></svg>