<svg id="visual" viewBox="0 0 1000 200" width="1000" height="200" xmlns="http://www.w3.org/2000/svg" xmlns:xlink="http://www.w3.org/1999/xlink" version="1.1"><rect x="0" y="0" width="1000" height="200" fill="#232323"></rect><path d="M0 169L12.8 171.8C25.7 174.7 51.3 180.3 77 180.5C102.7 180.7 128.3 175.3 154 173.2C179.7 171 205.3 172 231 172.2C256.7 172.3 282.3 171.7 308 173.3C333.7 175 359.3 179 385 181.2C410.7 183.3 436.3 183.7 461.8 184.5C487.3 185.3 512.7 186.7 538.2 184.8C563.7 183 589.3 178 615 174.7C640.7 171.3 666.3 169.7 692 170.2C717.7 170.7 743.3 173.3 769 176.3C794.7 179.3 820.3 182.7 846 184C871.7 185.3 897.3 184.7 923 183.5C948.7 182.3 974.3 180.7 987.2 179.8L1000 179L1000 0L987.2 0C974.3 0 948.7 0 923 0C897.3 0 871.7 0 846 0C820.3 0 794.7 0 769 0C743.3 0 717.7 0 692 0C666.3 0 640.7 0 615 0C589.3 0 563.7 0 538.2 0C512.7 0 487.3 0 461.8 0C436.3 0 410.7 0 385 0C359.3 0 333.7 0 308 0C282.3 0 256.7 0 231 0C205.3 0 179.7 0 154 0C128.3 0 102.7 0 77 0C51.3 0 25.7 0 12.8 0L0 0Z" fill="#232323"></path><path d="M0 156L12.8 154.8C25.7 153.7 51.3 151.3 77 151.7C102.7 152 128.3 155 154 157.7C179.7 160.3 205.3 162.7 231 162.7C256.7 162.7 282.3 160.3 308 158.2C333.7 156 359.3 154 385 155C410.7 156 436.3 160 461.8 160C487.3 160 512.7 156 538.2 154.5C563.7 153 589.3 154 615 155.5C640.7 157 666.3 159 692 160.7C717.7 162.3 743.3 163.7 769 162.8C794.7 162 820.3 159 846 158.3C871.7 157.7 897.3 159.3 923 159.8C948.7 160.3 974.3 159.7 987.2 159.3L1000 159L1000 0L987.2 0C974.3 0 948.7 0 923 0C897.3 0 871.7 0 846 0C820.3 0 794.7 0 769 0C743.3 0 717.7 0 692 0C666.3 0 640.7 0 615 0C589.3 0 563.7 0 538.2 0C512.7 0 487.3 0 461.8 0C436.3 0 410.7 0 385 0C359.3 0 333.7 0 308 0C282.3 0 256.7 0 231 0C205.3 0 179.7 0 154 0C128.3 0 102.7 0 77 0C51.3 0 25.7 0 12.8 0L0 0Z" fill="#3e3e3e"></path><path d="M0 128L12.8 129C25.7 130 51.3 132 77 131.7C102.7 131.3 128.3 128.7 154 126.8C179.7 125 205.3 124 231 124.2C256.7 124.3 282.3 125.7 308 129C333.7 132.3 359.3 137.7 385 137.8C410.7 138 436.3 133 461.8 130.2C487.3 127.3 512.7 126.7 538.2 127.8C563.7 129 589.3 132 615 133.5C640.7 135 666.3 135 692 132.8C717.7 130.7 743.3 126.3 769 126.7C794.7 127 820.3 132 846 133.3C871.7 134.7 897.3 132.3 923 130.2C948.7 128 974.3 126 987.2 125L1000 124L1000 0L987.2 0C974.3 0 948.7 0 923 0C897.3 0 871.7 0 846 0C820.3 0 794.7 0 769 0C743.3 0 717.7 0 692 0C666.3 0 640.7 0 615 0C589.3 0 563.7 0 538.2 0C512.7 0 487.3 0 461.8 0C436.3 0 410.7 0 385 0C359.3 0 333.7 0 308 0C282.3 0 256.7 0 231 0C205.3 0 179.7 0 154 0C128.3 0 102.7 0 77 0C51.3 0 25.7 0 12.8 0L0 0Z" fill="#5a5a5a"></path><path d="M0 103L12.8 104.8C25.7 106.7 51.3 110.3 77 113.2C102.7 116 128.3 118 154 118.8C179.7 119.7 205.3 119.3 231 118.3C256.7 117.3 282.3 115.7 308 115.3C333.7 115 359.3 116 385 116.8C410.7 117.7 436.3 118.3 461.8 116.3C487.3 114.3 512.7 109.7 538.2 108.7C563.7 107.7 589.3 110.3 615 112C640.7 113.7 666.3 114.3 692 114.7C717.7 115 743.3 115 769 116C794.7 117 820.3 119 846 119.5C871.7 120 897.3 119 923 118.5C948.7 118 974.3 118 987.2 118L1000 118L1000 0L987.2 0C974.3 0 948.7 0 923 0C897.3 0 871.7 0 846 0C820.3 0 794.7 0 769 0C743.3 0 717.7 0 692 0C666.3 0 640.7 0 615 0C589.3 0 563.7 0 538.2 0C512.7 0 487.3 0 461.8 0C436.3 0 410.7 0 385 0C359.3 0 333.7 0 308 0C282.3 0 256.7 0 231 0C205.3 0 179.7 0 154 0C128.3 0 102.7 0 77 0C51.3 0 25.7 0 12.8 0L0 0Z" fill="#787878"></path><path d="M0 84L12.8 84.8C25.7 85.7 51.3 87.3 77 89.7C102.7 92 128.3 95 154 95.5C179.7 96 205.3 94 231 92C256.7 90 282.3 88 308 86.2C333.7 84.3 359.3 82.7 385 81.7C410.7 80.7 436.3 80.3 461.8 81.7C487.3 83 512.7 86 538.2 87C563.7 88 589.3 87 615 88.3C640.7 89.7 666.3 93.3 692 93C717.7 92.7 743.3 88.3 769 88.2C794.7 88 820.3 92 846 94C871.7 96 897.3 96 923 94.2C948.7 92.3 974.3 88.7 987.2 86.8L1000 85L1000 0L987.2 0C974.3 0 948.7 0 923 0C897.3 0 871.7 0 846 0C820.3 0 794.7 0 769 0C743.3 0 717.7 0 692 0C666.3 0 640.7 0 615 0C589.3 0 563.7 0 538.2 0C512.7 0 487.3 0 461.8 0C436.3 0 410.7 0 385 0C359.3 0 333.7 0 308 0C282.3 0 256.7 0 231 0C205.3 0 179.7 0 154 0C128.3 0 102.7 0 77 0C51.3 0 25.7 0 12.8 0L0 0Z" fill="#989898"></path><path d="M0 66L12.8 65.5C25.7 65 51.3 64 77 65.3C102.7 66.7 128.3 70.3 154 70.5C179.7 70.7 205.3 67.3 231 66.3C256.7 65.3 282.3 66.7 308 65.2C333.7 63.7 359.3 59.3 385 60.3C410.7 61.3 436.3 67.7 461.8 67.8C487.3 68 512.7 62 538.2 59.5C563.7 57 589.3 58 615 58.8C640.7 59.7 666.3 60.3 692 62C717.7 63.7 743.3 66.3 769 68.8C794.7 71.3 820.3 73.7 846 74.2C871.7 74.7 897.3 73.3 923 73.5C948.7 73.7 974.3 75.3 987.2 76.2L1000 77L1000 0L987.2 0C974.3 0 948.7 0 923 0C897.3 0 871.7 0 846 0C820.3 0 794.7 0 769 0C743.3 0 717.7 0 692 0C666.3 0 640.7 0 615 0C589.3 0 563.7 0 538.2 0C512.7 0 487.3 0 461.8 0C436.3 0 410.7 0 385 0C359.3 0 333.7 0 308 0C282.3 0 256.7 0 231 0C205.3 0 179.7 0 154 0C128.3 0 102.7 0 77 0C51.3 0 25.7 0 12.8 0L0 0Z" fill="#b9b9b9"></path><path d="M0 39L12.8 40.5C25.7 42 51.3 45 77 46.5C102.7 48 128.3 48 154 47.8C179.7 47.7 205.3 47.3 231 46.3C256.7 45.3 282.3 43.7 308 42.8C333.7 42 359.3 42 385 44.2C410.7 46.3 436.3 50.7 461.8 50.5C487.3 50.3 512.7 45.7 538.2 42.3C563.7 39 589.3 37 615 37C640.7 37 666.3 39 692 40.3C717.7 41.7 743.3 42.3 769 42C794.7 41.7 820.3 40.3 846 39.2C871.7 38 897.3 37 923 36.8C948.7 36.7 974.3 37.3 987.2 37.7L1000 38L1000 0L987.2 0C974.3 0 948.7 0 923 0C897.3 0 871.7 0 846 0C820.3 0 794.7 0 769 0C743.3 0 717.7 0 692 0C666.3 0 640.7 0 615 0C589.3 0 563.7 0 538.2 0C512.7 0 487.3 0 461.8 0C436.3 0 410.7 0 385 0C359.3 0 333.7 0 308 0C282.3 0 256.7 0 231 0C205.3 0 179.7 0 154 0C128.3 0 102.7 0 77 0C51.3 0 25.7 0 12.8 0L0 0Z" fill="#dcdcdc"></path><path d="M0 15L12.8 17C25.7 19 51.3 23 77 25.3C102.7 27.7 128.3 28.3 154 27.3C179.7 26.3 205.3 23.7 231 23.2C256.7 22.7 282.3 24.3 308 23.7C333.7 23 359.3 20 385 21C410.7 22 436.3 27 461.8 28.8C487.3 30.7 512.7 29.3 538.2 28C563.7 26.7 589.3 25.3 615 24.7C640.7 24 666.3 24 692 21.8C717.7 19.7 743.3 15.3 769 14.8C794.7 14.3 820.3 17.7 846 18.3C871.7 19 897.3 17 923 18.2C948.7 19.3 974.3 23.7 987.2 25.8L1000 28L1000 0L987.2 0C974.3 0 948.7 0 923 0C897.3 0 871.7 0 846 0C820.3 0 794.7 0 769 0C743.3 0 717.7 0 692 0C666.3 0 640.7 0 615 0C589.3 0 563.7 0 538.2 0C512.7 0 487.3 0 461.8 0C436.3 0 410.7 0 385 0C359.3 0 333.7 0 308 0C282.3 0 256.7 0 231 0C205.3 0 179.7 0 154 0C128.3 0 102.7 0 77 0C51.3 0 25.7 0 12.8 0L0 0Z" fill="#ffffff"></path></svg>